<?xml version="1.0" encoding="utf-8" ?>
<svg baseProfile="full" height="300mm" version="1.1" viewBox="0,0,200,300" width="200mm" xmlns="http://www.w3.org/2000/svg" xmlns:ev="http://www.w3.org/2001/xml-events" xmlns:xlink="http://www.w3.org/1999/xlink"><defs /><rect fill="#222222" height="300" width="200" x="0" y="0" /><text fill="#FFFFFF" style="font-size:12px; font-family:Arial; font-weight:bold;" x="10" y="20">Over 10km Runs</text><text fill="#FFFFFF" style="font-size:4px; font-family:Arial" x="10" y="280">ATHLETE</text><text fill="#FFFFFF" style="font-size:9px; font-family:Arial" x="10" y="290">qmh</text><text fill="#FFFFFF" style="font-size:4px; font-family:Arial" x="120" y="280">STATISTICS</text><text fill="#FFFFFF" style="font-size:3px; font-family:Arial" x="120" y="285">Number: 1</text><text fill="#FFFFFF" style="font-size:3px; font-family:Arial" x="120" y="290">Weekly: 1.0</text><text fill="#FFFFFF" style="font-size:3px; font-family:Arial" x="141" y="285">Total: 11.0 km</text><text fill="#FFFFFF" style="font-size:3px; font-family:Arial" x="141" y="290">Avg: 11.0 km</text><text fill="#FFFFFF" style="font-size:3px; font-family:Arial" x="167" y="285">Min: 11.0 km</text><text fill="#FFFFFF" style="font-size:3px; font-family:Arial" x="167" y="290">Max: 11.0 km</text><polyline fill="none" points="35.7571868582163,123.88055408949731 34.63449691981077,123.47487039281987 34.42659137584269,121.76198073331034 36.58880903478712,118.8771031908691 45.071355235995725,119.41801875742385 51.4748459958937,118.02065257407958 62.03644763864577,113.4228447318892 72.7643737164326,106.75145478366176 87.7751540041063,110.04208181379363 85.65451745386235,119.73355261894176 87.27618069807068,121.35629564378178 85.69609856256284,127.30631689290749 103.20174537994899,124.7820724605117 107.27669404516928,132.12939807842486 110.02104722801596,141.55007410852704 111.72587268985808,142.40649207157549 131.56006160145625,138.16946528147673 134.22125256690197,144.57006900099805 143.53542094444856,142.49664126173593 143.90965092391707,143.12768522411352 155.13655030797236,140.06260850594845 163.28644763864577,139.1611124565825 165.73973305965774,144.93066441843985 166.52977412729524,145.51663152262336 166.03080082125962,146.41811828891514 166.44661190966144,148.5366070070304 171.31160164275207,163.90670102881268 171.56108829565346,164.31235815078253 173.01642710482702,162.5094355684123 172.14322381932288,167.0618049511686 173.1827515400946,167.55760553001892 175.09548254613765,167.2871688999585 177.59034907608293,164.67294203536585 179.00410677609034,166.65614963590633 181.0,167.6928238006658 176.5508213553112,172.7860237582936 174.55492813140154,173.8226876295521 173.80646817246452,175.8058658374357 172.55903490749188,176.3016593939392 165.32392197102308,183.28779899701476 165.36550308018923,185.00051793118473 164.1180698152166,185.18080385844223 162.62114989734255,186.84844618971692 158.71252566738985,187.84001517033903 151.10318275168538,187.38930219470058 146.36293634492904,186.3075897108647 141.2900410676375,186.48787525645457 137.54774127318524,184.77516044816002 133.51437371666543,179.90741873747902 130.06314168381505,177.8341096880613 126.57032854203135,177.20310120412614 123.8259753594175,178.64540536270943 120.99845995870419,181.25957306229975 120.58264887076803,184.00894439051626 117.75513347005472,188.83158255857415 115.55133470217697,189.50765031948686 114.76129363453947,190.3189306554268 114.76129363453947,191.67106217995752 114.26232032850385,190.9499257353018 111.39322381932288,193.24854521628004 108.39938398357481,190.49921502970392 104.1165297741536,188.15551405749284 90.27002053381875,184.54980288277147 77.83726899372414,179.18626855342882 66.15297741256654,172.8761685116915 48.68891170411371,165.03352570941206 40.78850102657452,159.03879477275768 32.05646817246452,149.34794118622085 19.0,126.72033249848755 19.0831622176338,125.9991201722296 20.081108829472214,125.4131345365895 33.22073921957053,122.21274163102498" stroke="#4DD2FF" stroke-linecap="round" stroke-linejoin="round" stroke-width="0.5"><title>2024-03-26 11.0km</title><desc>1711450948000</desc></polyline></svg>